<mxfile host="Electron" agent="Mozilla/5.0 (Windows NT 10.0; Win64; x64) AppleWebKit/537.36 (KHTML, like Gecko) draw.io/26.0.4 Chrome/128.0.6613.186 Electron/32.2.5 Safari/537.36" version="26.0.4">
  <diagram id="prtHgNgQTEPvFCAcTncT" name="Page-1">
    <mxGraphModel dx="660" dy="819" grid="1" gridSize="10" guides="1" tooltips="1" connect="1" arrows="1" fold="1" page="1" pageScale="1" pageWidth="827" pageHeight="1169" math="0" shadow="0">
      <root>
        <mxCell id="0" />
        <mxCell id="1" style="" parent="0" />
        <mxCell id="dNxyNK7c78bLwvsdeMH5-19" value="Create new tenant" style="swimlane;html=1;childLayout=stackLayout;resizeParent=1;resizeParentMax=0;horizontal=0;startSize=20;horizontalStack=0;" parent="1" vertex="1">
          <mxGeometry x="130" y="130" width="630" height="520" as="geometry" />
        </mxCell>
        <mxCell id="dNxyNK7c78bLwvsdeMH5-21" value="Authentication&lt;div&gt;Service&lt;/div&gt;" style="swimlane;html=1;startSize=30;horizontal=0;labelBackgroundColor=none;" parent="dNxyNK7c78bLwvsdeMH5-19" vertex="1">
          <mxGeometry x="20" width="610" height="120" as="geometry" />
        </mxCell>
        <mxCell id="afRlOjArlwIRJmxFgoHt-8" style="edgeStyle=orthogonalEdgeStyle;rounded=0;orthogonalLoop=1;jettySize=auto;html=1;" parent="dNxyNK7c78bLwvsdeMH5-21" source="afRlOjArlwIRJmxFgoHt-4" target="afRlOjArlwIRJmxFgoHt-5" edge="1">
          <mxGeometry relative="1" as="geometry">
            <Array as="points">
              <mxPoint x="120" y="50" />
              <mxPoint x="120" y="50" />
            </Array>
          </mxGeometry>
        </mxCell>
        <mxCell id="afRlOjArlwIRJmxFgoHt-4" value="&lt;span&gt;create tenant&lt;/span&gt;&lt;div&gt;&lt;span&gt;request&lt;/span&gt;&lt;/div&gt;" style="points=[[0.145,0.145,0],[0.5,0,0],[0.855,0.145,0],[1,0.5,0],[0.855,0.855,0],[0.5,1,0],[0.145,0.855,0],[0,0.5,0]];shape=mxgraph.bpmn.event;html=1;verticalLabelPosition=bottom;labelBackgroundColor=#ffffff;verticalAlign=top;align=center;perimeter=ellipsePerimeter;outlineConnect=0;aspect=fixed;outline=standard;symbol=message;" parent="dNxyNK7c78bLwvsdeMH5-21" vertex="1">
          <mxGeometry x="50" y="30" width="40" height="40" as="geometry" />
        </mxCell>
        <mxCell id="afRlOjArlwIRJmxFgoHt-9" style="edgeStyle=orthogonalEdgeStyle;rounded=0;orthogonalLoop=1;jettySize=auto;html=1;" parent="dNxyNK7c78bLwvsdeMH5-21" source="afRlOjArlwIRJmxFgoHt-5" target="afRlOjArlwIRJmxFgoHt-7" edge="1">
          <mxGeometry relative="1" as="geometry" />
        </mxCell>
        <mxCell id="afRlOjArlwIRJmxFgoHt-5" value="Create tenant in&amp;nbsp;&lt;div&gt;Identity Platform&lt;/div&gt;" style="points=[[0.25,0,0],[0.5,0,0],[0.75,0,0],[1,0.25,0],[1,0.5,0],[1,0.75,0],[0.75,1,0],[0.5,1,0],[0.25,1,0],[0,0.75,0],[0,0.5,0],[0,0.25,0]];shape=mxgraph.bpmn.task;whiteSpace=wrap;rectStyle=rounded;size=10;html=1;container=1;expand=0;collapsible=0;taskMarker=abstract;" parent="dNxyNK7c78bLwvsdeMH5-21" vertex="1">
          <mxGeometry x="130" y="20" width="120" height="80" as="geometry" />
        </mxCell>
        <mxCell id="afRlOjArlwIRJmxFgoHt-7" value="Create admin user in Identity Platform" style="points=[[0.25,0,0],[0.5,0,0],[0.75,0,0],[1,0.25,0],[1,0.5,0],[1,0.75,0],[0.75,1,0],[0.5,1,0],[0.25,1,0],[0,0.75,0],[0,0.5,0],[0,0.25,0]];shape=mxgraph.bpmn.task;whiteSpace=wrap;rectStyle=rounded;size=10;html=1;container=1;expand=0;collapsible=0;taskMarker=abstract;" parent="dNxyNK7c78bLwvsdeMH5-21" vertex="1">
          <mxGeometry x="280" y="20" width="120" height="80" as="geometry" />
        </mxCell>
        <mxCell id="dNxyNK7c78bLwvsdeMH5-22" value="Infrastructure&lt;div&gt;Service&lt;/div&gt;" style="swimlane;html=1;startSize=30;horizontal=0;" parent="dNxyNK7c78bLwvsdeMH5-19" vertex="1">
          <mxGeometry x="20" y="120" width="610" height="120" as="geometry" />
        </mxCell>
        <mxCell id="yXgIWxOoSh4Of9-vBWLO-1" value="Dispatch workflow in GitHub" style="points=[[0.25,0,0],[0.5,0,0],[0.75,0,0],[1,0.25,0],[1,0.5,0],[1,0.75,0],[0.75,1,0],[0.5,1,0],[0.25,1,0],[0,0.75,0],[0,0.5,0],[0,0.25,0]];shape=mxgraph.bpmn.task;whiteSpace=wrap;rectStyle=rounded;size=10;html=1;container=1;expand=0;collapsible=0;taskMarker=abstract;" vertex="1" parent="dNxyNK7c78bLwvsdeMH5-22">
          <mxGeometry x="240" y="20" width="120" height="80" as="geometry" />
        </mxCell>
        <mxCell id="yXgIWxOoSh4Of9-vBWLO-6" style="edgeStyle=orthogonalEdgeStyle;rounded=0;orthogonalLoop=1;jettySize=auto;html=1;" edge="1" parent="dNxyNK7c78bLwvsdeMH5-22" source="yXgIWxOoSh4Of9-vBWLO-5" target="yXgIWxOoSh4Of9-vBWLO-1">
          <mxGeometry relative="1" as="geometry" />
        </mxCell>
        <mxCell id="yXgIWxOoSh4Of9-vBWLO-10" value="enterprise&lt;div&gt;tenant&lt;/div&gt;" style="edgeLabel;html=1;align=center;verticalAlign=middle;resizable=0;points=[];" vertex="1" connectable="0" parent="yXgIWxOoSh4Of9-vBWLO-6">
          <mxGeometry x="-0.1264" y="-2" relative="1" as="geometry">
            <mxPoint x="2" y="-2" as="offset" />
          </mxGeometry>
        </mxCell>
        <mxCell id="yXgIWxOoSh4Of9-vBWLO-8" style="edgeStyle=orthogonalEdgeStyle;rounded=0;orthogonalLoop=1;jettySize=auto;html=1;" edge="1" parent="dNxyNK7c78bLwvsdeMH5-22" source="yXgIWxOoSh4Of9-vBWLO-5" target="yXgIWxOoSh4Of9-vBWLO-7">
          <mxGeometry relative="1" as="geometry">
            <Array as="points">
              <mxPoint x="105" y="10" />
              <mxPoint x="410" y="10" />
            </Array>
          </mxGeometry>
        </mxCell>
        <mxCell id="yXgIWxOoSh4Of9-vBWLO-9" value="free/premium tenant" style="edgeLabel;html=1;align=center;verticalAlign=middle;resizable=0;points=[];" vertex="1" connectable="0" parent="yXgIWxOoSh4Of9-vBWLO-8">
          <mxGeometry x="-0.601" y="2" relative="1" as="geometry">
            <mxPoint x="28" y="2" as="offset" />
          </mxGeometry>
        </mxCell>
        <mxCell id="yXgIWxOoSh4Of9-vBWLO-5" value="" style="points=[[0.25,0.25,0],[0.5,0,0],[0.75,0.25,0],[1,0.5,0],[0.75,0.75,0],[0.5,1,0],[0.25,0.75,0],[0,0.5,0]];shape=mxgraph.bpmn.gateway2;html=1;verticalLabelPosition=bottom;labelBackgroundColor=#ffffff;verticalAlign=top;align=center;perimeter=rhombusPerimeter;outlineConnect=0;outline=none;symbol=none;gwType=exclusive;" vertex="1" parent="dNxyNK7c78bLwvsdeMH5-22">
          <mxGeometry x="80" y="35" width="50" height="50" as="geometry" />
        </mxCell>
        <mxCell id="yXgIWxOoSh4Of9-vBWLO-7" value="" style="points=[[0.145,0.145,0],[0.5,0,0],[0.855,0.145,0],[1,0.5,0],[0.855,0.855,0],[0.5,1,0],[0.145,0.855,0],[0,0.5,0]];shape=mxgraph.bpmn.event;html=1;verticalLabelPosition=bottom;labelBackgroundColor=#ffffff;verticalAlign=top;align=center;perimeter=ellipsePerimeter;outlineConnect=0;aspect=fixed;outline=end;symbol=terminate2;" vertex="1" parent="dNxyNK7c78bLwvsdeMH5-22">
          <mxGeometry x="390" y="40" width="40" height="40" as="geometry" />
        </mxCell>
        <mxCell id="afRlOjArlwIRJmxFgoHt-1" value="Github" style="swimlane;html=1;startSize=30;horizontal=0;" parent="dNxyNK7c78bLwvsdeMH5-19" vertex="1">
          <mxGeometry x="20" y="240" width="610" height="280" as="geometry" />
        </mxCell>
        <mxCell id="yXgIWxOoSh4Of9-vBWLO-13" style="edgeStyle=orthogonalEdgeStyle;rounded=0;orthogonalLoop=1;jettySize=auto;html=1;dashed=1;" edge="1" parent="afRlOjArlwIRJmxFgoHt-1" source="yXgIWxOoSh4Of9-vBWLO-3" target="yXgIWxOoSh4Of9-vBWLO-11">
          <mxGeometry relative="1" as="geometry" />
        </mxCell>
        <mxCell id="yXgIWxOoSh4Of9-vBWLO-16" style="edgeStyle=orthogonalEdgeStyle;rounded=0;orthogonalLoop=1;jettySize=auto;html=1;" edge="1" parent="afRlOjArlwIRJmxFgoHt-1" source="yXgIWxOoSh4Of9-vBWLO-3" target="yXgIWxOoSh4Of9-vBWLO-14">
          <mxGeometry relative="1" as="geometry" />
        </mxCell>
        <mxCell id="yXgIWxOoSh4Of9-vBWLO-3" value="Add tenant to&amp;nbsp;&lt;div&gt;list of enterprise tenants&lt;/div&gt;" style="points=[[0.25,0,0],[0.5,0,0],[0.75,0,0],[1,0.25,0],[1,0.5,0],[1,0.75,0],[0.75,1,0],[0.5,1,0],[0.25,1,0],[0,0.75,0],[0,0.5,0],[0,0.25,0]];shape=mxgraph.bpmn.task;whiteSpace=wrap;rectStyle=rounded;size=10;html=1;container=1;expand=0;collapsible=0;taskMarker=abstract;" vertex="1" parent="afRlOjArlwIRJmxFgoHt-1">
          <mxGeometry x="60" y="10" width="120" height="80" as="geometry" />
        </mxCell>
        <mxCell id="yXgIWxOoSh4Of9-vBWLO-15" style="edgeStyle=orthogonalEdgeStyle;rounded=0;orthogonalLoop=1;jettySize=auto;html=1;dashed=1;" edge="1" parent="afRlOjArlwIRJmxFgoHt-1" source="yXgIWxOoSh4Of9-vBWLO-11" target="yXgIWxOoSh4Of9-vBWLO-14">
          <mxGeometry relative="1" as="geometry" />
        </mxCell>
        <mxCell id="yXgIWxOoSh4Of9-vBWLO-11" value="" style="shape=mxgraph.bpmn.data;labelPosition=center;verticalLabelPosition=bottom;align=center;verticalAlign=top;size=15;html=1;" vertex="1" parent="afRlOjArlwIRJmxFgoHt-1">
          <mxGeometry x="100" y="125" width="40" height="50" as="geometry" />
        </mxCell>
        <mxCell id="yXgIWxOoSh4Of9-vBWLO-26" style="edgeStyle=orthogonalEdgeStyle;rounded=0;orthogonalLoop=1;jettySize=auto;html=1;dashed=1;startArrow=classic;startFill=1;endArrow=none;endFill=0;" edge="1" parent="afRlOjArlwIRJmxFgoHt-1" source="yXgIWxOoSh4Of9-vBWLO-12" target="yXgIWxOoSh4Of9-vBWLO-23">
          <mxGeometry relative="1" as="geometry">
            <Array as="points">
              <mxPoint x="120" y="240" />
            </Array>
          </mxGeometry>
        </mxCell>
        <mxCell id="yXgIWxOoSh4Of9-vBWLO-12" value="enterprise-&lt;div&gt;tenants.json&lt;/div&gt;" style="text;html=1;align=center;verticalAlign=middle;resizable=0;points=[];autosize=1;strokeColor=none;fillColor=none;" vertex="1" parent="afRlOjArlwIRJmxFgoHt-1">
          <mxGeometry x="75" y="175" width="90" height="40" as="geometry" />
        </mxCell>
        <mxCell id="yXgIWxOoSh4Of9-vBWLO-21" style="edgeStyle=orthogonalEdgeStyle;rounded=0;orthogonalLoop=1;jettySize=auto;html=1;" edge="1" parent="afRlOjArlwIRJmxFgoHt-1" source="yXgIWxOoSh4Of9-vBWLO-14" target="yXgIWxOoSh4Of9-vBWLO-17">
          <mxGeometry relative="1" as="geometry" />
        </mxCell>
        <mxCell id="yXgIWxOoSh4Of9-vBWLO-14" value="Fetch list of enterprise tenants" style="points=[[0.25,0,0],[0.5,0,0],[0.75,0,0],[1,0.25,0],[1,0.5,0],[1,0.75,0],[0.75,1,0],[0.5,1,0],[0.25,1,0],[0,0.75,0],[0,0.5,0],[0,0.25,0]];shape=mxgraph.bpmn.task;whiteSpace=wrap;rectStyle=rounded;size=10;html=1;container=1;expand=0;collapsible=0;taskMarker=abstract;" vertex="1" parent="afRlOjArlwIRJmxFgoHt-1">
          <mxGeometry x="200" y="10" width="120" height="80" as="geometry" />
        </mxCell>
        <mxCell id="yXgIWxOoSh4Of9-vBWLO-28" style="edgeStyle=orthogonalEdgeStyle;rounded=0;orthogonalLoop=1;jettySize=auto;html=1;" edge="1" parent="afRlOjArlwIRJmxFgoHt-1" source="yXgIWxOoSh4Of9-vBWLO-17" target="yXgIWxOoSh4Of9-vBWLO-27">
          <mxGeometry relative="1" as="geometry" />
        </mxCell>
        <mxCell id="yXgIWxOoSh4Of9-vBWLO-17" value="Fetch deployment info" style="points=[[0.25,0,0],[0.5,0,0],[0.75,0,0],[1,0.25,0],[1,0.5,0],[1,0.75,0],[0.75,1,0],[0.5,1,0],[0.25,1,0],[0,0.75,0],[0,0.5,0],[0,0.25,0]];shape=mxgraph.bpmn.task;whiteSpace=wrap;rectStyle=rounded;size=10;html=1;container=1;expand=0;collapsible=0;taskMarker=abstract;" vertex="1" parent="afRlOjArlwIRJmxFgoHt-1">
          <mxGeometry x="340" y="10" width="120" height="80" as="geometry" />
        </mxCell>
        <mxCell id="yXgIWxOoSh4Of9-vBWLO-20" style="edgeStyle=orthogonalEdgeStyle;rounded=0;orthogonalLoop=1;jettySize=auto;html=1;dashed=1;" edge="1" parent="afRlOjArlwIRJmxFgoHt-1" source="yXgIWxOoSh4Of9-vBWLO-18" target="yXgIWxOoSh4Of9-vBWLO-17">
          <mxGeometry relative="1" as="geometry">
            <Array as="points">
              <mxPoint x="400" y="149" />
            </Array>
          </mxGeometry>
        </mxCell>
        <mxCell id="yXgIWxOoSh4Of9-vBWLO-18" value="" style="shape=mxgraph.bpmn.data;labelPosition=center;verticalLabelPosition=bottom;align=center;verticalAlign=top;size=15;html=1;" vertex="1" parent="afRlOjArlwIRJmxFgoHt-1">
          <mxGeometry x="315" y="124" width="40" height="50" as="geometry" />
        </mxCell>
        <mxCell id="yXgIWxOoSh4Of9-vBWLO-25" style="edgeStyle=orthogonalEdgeStyle;rounded=0;orthogonalLoop=1;jettySize=auto;html=1;dashed=1;startArrow=classic;startFill=1;endArrow=none;endFill=0;" edge="1" parent="afRlOjArlwIRJmxFgoHt-1" source="yXgIWxOoSh4Of9-vBWLO-19" target="yXgIWxOoSh4Of9-vBWLO-23">
          <mxGeometry relative="1" as="geometry">
            <Array as="points">
              <mxPoint x="335" y="240" />
            </Array>
          </mxGeometry>
        </mxCell>
        <mxCell id="yXgIWxOoSh4Of9-vBWLO-19" value="deployment.json" style="text;html=1;align=center;verticalAlign=middle;resizable=0;points=[];autosize=1;strokeColor=none;fillColor=none;" vertex="1" parent="afRlOjArlwIRJmxFgoHt-1">
          <mxGeometry x="280" y="174" width="110" height="30" as="geometry" />
        </mxCell>
        <mxCell id="yXgIWxOoSh4Of9-vBWLO-23" value="" style="strokeColor=#dddddd;shadow=1;strokeWidth=1;rounded=1;absoluteArcSize=1;arcSize=2;" vertex="1" parent="afRlOjArlwIRJmxFgoHt-1">
          <mxGeometry x="165" y="209" width="120" height="60" as="geometry" />
        </mxCell>
        <mxCell id="yXgIWxOoSh4Of9-vBWLO-24" value="Cloud&#xa;Storage" style="editableCssRules=.*;html=1;fontColor=#999999;shape=image;verticalLabelPosition=middle;verticalAlign=middle;labelPosition=right;align=left;spacingLeft=20;part=1;points=[];imageAspect=0;image=data:image/svg+xml,PHN2ZyB4bWxucz0iaHR0cDovL3d3dy53My5vcmcvMjAwMC9zdmciIHhtbG5zOnY9Imh0dHBzOi8vdmVjdGEuaW8vbmFubyIgd2lkdGg9IjIwIiBoZWlnaHQ9IjE2IiB2aWV3Qm94PSIwIDAgMjAgMTYiPiYjeGE7CTxzdHlsZSB0eXBlPSJ0ZXh0L2NzcyI+JiN4YTsJLnN0MHtmaWxsOiM0Mjg1ZjQ7fSYjeGE7CS5zdDF7ZmlsbDojNjY5ZGY2O30mI3hhOwkuc3Qye2ZpbGw6I2FlY2JmYTt9JiN4YTsJLnN0M3tmaWxsOiNmZmY7fSYjeGE7CTwvc3R5bGU+JiN4YTsJPHBhdGggY2xhc3M9InN0MiIgZD0iTTAgMGgyMHY3SDB6Ii8+JiN4YTsJPHBhdGggY2xhc3M9InN0MSIgZD0iTTE4IDBoMnY3aC0yeiIvPiYjeGE7CTxwYXRoIGNsYXNzPSJzdDAiIGQ9Ik0xOCA3bDItN2gtMnoiLz4mI3hhOwk8cGF0aCBjbGFzcz0ic3QxIiBkPSJNMCAwaDJ2N0gweiIvPiYjeGE7CTxnIGNsYXNzPSJzdDMiPiYjeGE7CQk8cGF0aCBkPSJNNCAzaDZ2MUg0eiIvPiYjeGE7CQk8cmVjdCB4PSIxMyIgeT0iMiIgd2lkdGg9IjMiIGhlaWdodD0iMyIgcng9IjEuNSIvPiYjeGE7CTwvZz4mI3hhOwk8cGF0aCBjbGFzcz0ic3QyIiBkPSJNMCA5aDIwdjdIMHoiLz4mI3hhOwk8cGF0aCBjbGFzcz0ic3QxIiBkPSJNMTggOWgydjdoLTJ6Ii8+JiN4YTsJPHBhdGggY2xhc3M9InN0MCIgZD0iTTE4IDE2bDItN2gtMnoiLz4mI3hhOwk8cGF0aCBjbGFzcz0ic3QxIiBkPSJNMCA5aDJ2N0gweiIvPiYjeGE7CTxnIGNsYXNzPSJzdDMiPiYjeGE7CQk8cGF0aCBkPSJNNCAxMmg2djFINHoiLz4mI3hhOwkJPHJlY3QgeD0iMTMiIHk9IjExIiB3aWR0aD0iMyIgaGVpZ2h0PSIzIiByeD0iMS41Ii8+JiN4YTsJPC9nPiYjeGE7PC9zdmc+;" vertex="1" parent="yXgIWxOoSh4Of9-vBWLO-23">
          <mxGeometry width="30" height="24" relative="1" as="geometry">
            <mxPoint x="15" y="18" as="offset" />
          </mxGeometry>
        </mxCell>
        <mxCell id="yXgIWxOoSh4Of9-vBWLO-27" value="&lt;div&gt;&lt;b&gt;Terraform&lt;/b&gt;&lt;/div&gt;Apply changes to&amp;nbsp;&lt;div&gt;the application&lt;/div&gt;" style="points=[[0.25,0,0],[0.5,0,0],[0.75,0,0],[1,0.25,0],[1,0.5,0],[1,0.75,0],[0.75,1,0],[0.5,1,0],[0.25,1,0],[0,0.75,0],[0,0.5,0],[0,0.25,0]];shape=mxgraph.bpmn.task;whiteSpace=wrap;rectStyle=rounded;size=10;html=1;container=1;expand=0;collapsible=0;taskMarker=abstract;" vertex="1" parent="afRlOjArlwIRJmxFgoHt-1">
          <mxGeometry x="480" y="10" width="120" height="80" as="geometry" />
        </mxCell>
        <mxCell id="yXgIWxOoSh4Of9-vBWLO-2" style="edgeStyle=orthogonalEdgeStyle;rounded=0;orthogonalLoop=1;jettySize=auto;html=1;" edge="1" parent="dNxyNK7c78bLwvsdeMH5-19" source="afRlOjArlwIRJmxFgoHt-7" target="yXgIWxOoSh4Of9-vBWLO-5">
          <mxGeometry relative="1" as="geometry">
            <Array as="points">
              <mxPoint x="440" y="60" />
              <mxPoint x="440" y="110" />
              <mxPoint x="60" y="110" />
              <mxPoint x="60" y="180" />
            </Array>
          </mxGeometry>
        </mxCell>
        <mxCell id="yXgIWxOoSh4Of9-vBWLO-4" style="edgeStyle=orthogonalEdgeStyle;rounded=0;orthogonalLoop=1;jettySize=auto;html=1;entryX=0;entryY=0.5;entryDx=0;entryDy=0;entryPerimeter=0;" edge="1" parent="dNxyNK7c78bLwvsdeMH5-19" source="yXgIWxOoSh4Of9-vBWLO-1" target="yXgIWxOoSh4Of9-vBWLO-3">
          <mxGeometry relative="1" as="geometry">
            <Array as="points">
              <mxPoint x="320" y="230" />
              <mxPoint x="60" y="230" />
              <mxPoint x="60" y="290" />
            </Array>
          </mxGeometry>
        </mxCell>
      </root>
    </mxGraphModel>
  </diagram>
</mxfile>
